<svg width="61" height="61" viewBox="0 0 61 61" fill="none" xmlns="http://www.w3.org/2000/svg">
<rect x="0.970001" y="1" width="59" height="59" rx="29.5" stroke="#E1E1E1"/>
<g clip-path="url(#clip0_1_37)">
<path d="M44.5945 25.2471C45.1393 25.7529 45.4116 26.3852 45.4116 27.144C45.4116 27.9027 45.1393 28.5545 44.5945 29.0992L29.0692 44.6245C28.5245 45.1692 27.8727 45.4416 27.114 45.4416C26.3552 45.4416 25.7229 45.1692 25.2171 44.6245L16.3455 35.7529C15.8007 35.2471 15.5284 34.6148 15.5284 33.856C15.5284 33.0973 15.8007 32.4455 16.3455 31.9008L31.8708 16.3755C32.4155 15.8307 33.0673 15.5584 33.826 15.5584C34.5848 15.5584 35.2171 15.8307 35.7229 16.3755L44.5945 25.2471ZM26.8513 43.5739V34.4689H17.6295L26.5011 43.3405C26.5789 43.4572 26.6957 43.535 26.8513 43.5739ZM18.1548 32.6595H32.221C32.4933 32.6595 32.6295 32.5233 32.6295 32.251V18.1848L18.1548 32.6595ZM28.6607 42.465L42.435 28.6906H34.4389V32.251C34.4389 32.8735 34.2249 33.3988 33.7968 33.8268C33.3688 34.2548 32.8435 34.4689 32.221 34.4689H28.6607V42.465ZM34.4389 26.8813H43.5439C43.505 26.7257 43.4272 26.6089 43.3105 26.5311L34.4389 17.6595V26.8813ZM16.4039 19.4105C16.1704 19.4105 15.9661 19.3229 15.791 19.1478C15.6159 18.9727 15.5284 18.7685 15.5284 18.535C15.5284 18.3015 15.6159 18.0973 15.791 17.9222C15.9661 17.7471 16.1704 17.6595 16.4039 17.6595H25.7424C25.9758 17.6595 26.1801 17.7471 26.3552 17.9222C26.5303 18.0973 26.6179 18.3015 26.6179 18.535C26.6179 18.7685 26.5303 18.9727 26.3552 19.1478C26.1801 19.3229 25.9758 19.4105 25.7424 19.4105H16.4039ZM16.4039 22.9124C16.1704 22.9124 15.9661 22.8249 15.791 22.6498C15.6159 22.4747 15.5284 22.2607 15.5284 22.0078C15.5284 21.7549 15.6159 21.5408 15.791 21.3657C15.9661 21.1906 16.1704 21.1031 16.4039 21.1031H22.2404C22.4739 21.1031 22.6782 21.1906 22.8533 21.3657C23.0284 21.5408 23.1159 21.7549 23.1159 22.0078C23.1159 22.2607 23.0284 22.4747 22.8533 22.6498C22.6782 22.8249 22.4739 22.9124 22.2404 22.9124H16.4039ZM16.4039 26.2393C16.1704 26.2393 15.9661 26.1517 15.791 25.9766C15.6159 25.8015 15.5284 25.5973 15.5284 25.3638C15.5284 25.1303 15.6159 24.9261 15.791 24.751C15.9661 24.5759 16.1704 24.4883 16.4039 24.4883H20.1976C20.4311 24.4883 20.6354 24.5759 20.8105 24.751C20.9856 24.9261 21.0731 25.1303 21.0731 25.3638C21.0731 25.5973 20.9856 25.8015 20.8105 25.9766C20.6354 26.1517 20.4311 26.2393 20.1976 26.2393H16.4039ZM20.1976 42.5233C20.4311 42.5233 20.6354 42.6109 20.8105 42.786C20.9856 42.9611 21.0731 43.1751 21.0731 43.428C21.0731 43.6809 20.9856 43.8852 20.8105 44.0408C20.6354 44.1965 20.4311 44.2743 20.1976 44.2743H16.4039C16.1704 44.2743 15.9661 44.1965 15.791 44.0408C15.6159 43.8852 15.5284 43.6809 15.5284 43.428C15.5284 43.1751 15.6159 42.9611 15.791 42.786C15.9661 42.6109 16.1704 42.5233 16.4039 42.5233H20.1976Z" fill="#7DC8E5"/>
</g>
<defs>
<clipPath id="clip0_1_37">
<rect width="30" height="30" fill="white" transform="matrix(1 0 0 -1 15.47 45.5)"/>
</clipPath>
</defs>
</svg>
