<svg width="61" height="61" viewBox="0 0 61 61" fill="none" xmlns="http://www.w3.org/2000/svg">
<rect x="1.41998" y="1" width="59" height="59" rx="29.5" stroke="#E1E1E1"/>
<g clip-path="url(#clip0_1_42)">
<path d="M23.3908 27.0564C22.418 28.0681 23.7702 30.393 27.4472 34.0311C31.1243 37.6693 33.4492 39.0019 34.4219 38.0292C34.4998 37.9514 34.597 37.8346 34.7138 37.679C35.2196 37.1732 35.6184 36.8132 35.9103 36.5992C36.2021 36.3852 36.6009 36.2101 37.1068 36.0739C37.6126 35.9377 38.1865 36.0156 38.8285 36.3074C39.4706 36.5992 40.2391 37.0953 41.134 37.7957C41.6009 38.1848 41.9803 38.5642 42.2721 38.9339C42.564 39.3035 42.778 39.6342 42.9142 39.9261C43.0503 40.2179 43.0892 40.5389 43.0309 40.8891C42.9725 41.2393 42.9142 41.5214 42.8558 41.7354C42.7974 41.9494 42.6321 42.2315 42.3597 42.5817C42.0873 42.9319 41.883 43.1751 41.7468 43.3113C41.6107 43.4475 41.3675 43.6809 41.0173 44.0117C40.6671 44.3424 40.4531 44.5661 40.3752 44.6829C39.2857 45.7724 37.1068 45.7043 33.8383 44.4786C30.5698 43.2529 27.2429 40.9669 23.8577 37.6206C20.4725 34.2743 18.1671 30.9767 16.9414 27.7276C15.7157 24.4786 15.6282 22.3093 16.6787 21.2198C16.7955 21.1031 17.0192 20.8696 17.3499 20.5195C17.6807 20.1693 17.9142 19.9261 18.0503 19.7899C18.1865 19.6537 18.4297 19.4494 18.7799 19.177C19.1301 18.9047 19.4122 18.7393 19.6262 18.6809C19.8402 18.6226 20.1223 18.5642 20.4725 18.5058C20.8227 18.4475 21.1437 18.4864 21.4356 18.6226C21.7274 18.7588 22.0581 18.963 22.4278 19.2354C22.7974 19.5078 23.1768 19.8774 23.5659 20.3444C24.2663 21.2393 24.7624 22.0078 25.0542 22.6498C25.3461 23.2918 25.4239 23.8658 25.2877 24.3716C25.1515 24.8774 24.9861 25.2763 24.7916 25.5681C24.597 25.8599 24.2274 26.2588 23.6826 26.7646C23.5659 26.8813 23.4686 26.9786 23.3908 27.0564ZM31.3285 21.3366C33.5854 21.6868 35.5309 22.679 37.1651 24.3132C38.7994 25.9475 39.7916 27.893 40.1418 30.1498C40.2196 30.6556 40.064 31.1031 39.6749 31.4922C39.3636 31.8035 38.9939 31.9591 38.5659 31.9591C38.1379 31.9591 37.7682 31.8035 37.457 31.4922C37.3791 31.3755 37.3013 31.249 37.2235 31.1128C37.1457 30.9767 37.0873 30.8502 37.0484 30.7335V30.6167C36.7371 28.9825 36.0367 27.6206 34.9472 26.5311C33.8577 25.4416 32.4764 24.7412 30.8033 24.43C30.492 24.3521 30.2196 24.1965 29.9861 23.963C29.6749 23.6518 29.5192 23.2821 29.5192 22.8541C29.5192 22.4261 29.6554 22.0759 29.9278 21.8035C30.1223 21.6089 30.3266 21.4728 30.5406 21.3949C30.7546 21.3171 30.9394 21.2977 31.0951 21.3366H31.3285ZM42.0387 27.0856C42.0387 27.0856 41.8782 26.6916 41.5571 25.9037C41.2361 25.1158 40.3558 24.0019 38.9161 22.5623C37.4764 21.1226 35.9686 20.0817 34.3928 19.4397C32.8169 18.7977 31.3285 18.5739 29.9278 18.7685C29.383 18.8463 28.9161 18.7101 28.527 18.3599C28.2157 18.0486 28.0601 17.679 28.0601 17.251C28.0601 16.823 28.2157 16.4533 28.527 16.142C28.6437 16.0253 28.7896 15.928 28.9647 15.8502C29.1398 15.7724 29.2663 15.7335 29.3441 15.7335L29.5192 15.6751C31.0756 15.4416 32.885 15.6556 34.9472 16.3171C37.0095 16.9786 39.062 18.321 41.1048 20.3444C43.1476 22.3677 44.49 24.4202 45.1321 26.5019C45.7741 28.5837 45.9784 30.3833 45.7449 31.9008C45.706 32.3288 45.5698 32.6595 45.3363 32.893C45.025 33.2043 44.6554 33.3599 44.2274 33.3599C43.7994 33.3599 43.4297 33.2043 43.1184 32.893C42.9239 32.7374 42.7974 32.5428 42.7391 32.3093C42.6807 32.0759 42.6515 31.8813 42.6515 31.7257L42.7099 31.4922C42.9044 30.1304 42.6807 28.6615 42.0387 27.0856Z" fill="#7DC8E5"/>
</g>
<defs>
<clipPath id="clip0_1_42">
<rect width="30" height="30" fill="white" transform="matrix(1 0 0 -1 15.92 45.5)"/>
</clipPath>
</defs>
</svg>
